<svg width="61" height="60" viewBox="0 0 61 60" fill="none" xmlns="http://www.w3.org/2000/svg">
<path d="M30.415 0C34.4483 0 38.3164 1.58035 41.1684 4.3934C44.0203 7.20644 45.6225 11.0218 45.6225 15C45.6225 18.9782 44.0203 22.7936 41.1684 25.6066C38.3164 28.4196 34.4483 30 30.415 30C26.3817 30 22.5136 28.4196 19.6617 25.6066C16.8097 22.7936 15.2075 18.9782 15.2075 15C15.2075 11.0218 16.8097 7.20644 19.6617 4.3934C22.5136 1.58035 26.3817 0 30.415 0ZM30.415 37.5C47.2193 37.5 60.83 44.2125 60.83 52.5V60H0V52.5C0 44.2125 13.6107 37.5 30.415 37.5Z" fill="white"/>
</svg>
